<?xml version="1.0" standalone="no"?>
<!DOCTYPE svg PUBLIC "-//W3C//DTD SVG 20010904//EN"
 "http://www.w3.org/TR/2001/REC-SVG-20010904/DTD/svg10.dtd">
<svg version="1.0" xmlns="http://www.w3.org/2000/svg"
 width="211.000000pt" height="209.000000pt" viewBox="0 0 211.000000 209.000000"
 preserveAspectRatio="xMidYMid meet">

<g transform="translate(0.000000,209.000000) scale(0.100000,-0.100000)"
fill="#000000" stroke="none">
<path d="M880 2019 c-217 -49 -372 -132 -515 -273 -119 -118 -208 -272 -256
-441 -20 -69 -23 -104 -23 -250 1 -156 3 -177 28 -260 50 -165 122 -288 238
-411 345 -363 920 -402 1315 -90 333 264 459 725 306 1116 -66 168 -216 356
-365 456 -81 54 -210 112 -308 139 -77 21 -349 30 -420 14z m395 -24 c315 -73
575 -304 691 -612 70 -186 73 -436 8 -629 -108 -321 -399 -576 -733 -639 -145
-28 -349 -15 -487 30 -285 95 -522 333 -612 615 -39 121 -44 170 -39 330 5
166 15 219 67 344 84 202 281 404 482 495 80 36 195 72 267 82 81 11 275 3
356 -16z"/>
<path d="M865 1975 c-290 -64 -524 -248 -651 -510 -71 -146 -88 -223 -88 -405
-1 -172 11 -233 69 -372 82 -195 247 -369 440 -465 512 -256 1129 -3 1314 537
53 154 64 315 31 479 -75 373 -357 656 -733 736 -85 18 -299 18 -382 0z m347
-574 c-6 -16 -8 -32 -5 -35 14 -14 41 -4 51 20 14 29 32 24 32 -9 0 -27 -26
-67 -44 -67 -6 0 -27 -37 -45 -82 -52 -129 -64 -143 -95 -113 -13 13 -10 26
25 110 31 75 38 103 33 130 -5 28 -2 38 21 61 31 31 41 26 27 -15z m-175 -95
c28 -24 27 -50 -2 -26 -9 7 -25 10 -41 6 -33 -9 -30 -25 37 -162 55 -116 61
-141 37 -157 -31 -20 -40 -4 -121 213 -11 30 -21 56 -22 58 -1 1 -17 -5 -34
-15 -31 -17 -32 -17 -47 2 -23 30 -14 58 21 66 17 3 46 13 65 22 50 22 75 20
107 -7z m-557 -426 c0 -28 2 -30 40 -30 38 0 40 2 40 31 0 24 4 30 18 27 14
-3 18 -16 20 -68 4 -77 -3 -110 -23 -110 -16 0 -18 8 -15 53 2 27 0 28 -37 25
-36 -3 -38 -5 -41 -40 -3 -39 -24 -52 -36 -22 -8 21 -8 149 1 157 16 17 33 5
33 -23z m542 -51 c2 -45 1 -84 -2 -88 -11 -14 -84 -11 -102 5 -38 35 -9 115
43 119 13 1 25 7 25 13 1 7 2 17 3 22 0 6 7 10 15 10 11 0 15 -19 18 -81z
m239 69 c1 -7 1 -21 0 -30 -2 -15 6 -18 38 -18 39 0 41 1 41 31 0 24 4 30 18
27 15 -3 17 -15 17 -88 0 -69 -3 -85 -15 -85 -10 0 -16 12 -18 38 -3 35 -5 37
-38 37 -32 0 -34 -2 -34 -34 0 -36 -15 -55 -30 -40 -7 8 -15 124 -11 162 0 6
8 12 16 12 8 0 16 -6 16 -12z m326 -8 c3 -11 11 -20 18 -20 7 0 24 -9 39 -21
19 -15 26 -30 26 -54 0 -42 -28 -64 -82 -63 l-38 0 0 89 c0 75 3 89 16 89 9 0
18 -9 21 -20z m-873 -30 c24 -9 26 -14 26 -68 l0 -59 -42 -1 c-50 0 -78 20
-78 55 0 42 19 66 67 82 1 1 13 -3 27 -9z m371 -32 l12 -30 11 31 c11 31 42
44 42 16 0 -31 -41 -123 -65 -145 -19 -18 -28 -21 -37 -12 -9 9 -7 16 7 32 18
20 18 22 1 70 -28 76 -2 110 29 38z m-217 20 c7 -7 12 -36 12 -66 0 -46 -3
-53 -17 -50 -17 3 -19 11 -22 76 -2 41 -26 18 -31 -29 -3 -30 -10 -44 -20 -44
-11 0 -16 15 -18 63 l-3 62 44 0 c23 0 48 -5 55 -12z m577 -33 c0 -30 4 -40
18 -43 14 -3 17 4 17 42 0 39 3 46 20 46 18 0 20 -7 20 -64 l0 -64 -37 0 c-21
0 -46 4 -55 9 -34 18 -34 124 1 117 11 -2 16 -14 16 -43z"/>
<path d="M944 816 c-9 -24 4 -48 23 -44 12 2 18 12 18 28 0 29 -32 41 -41 16z"/>
<path d="M1597 824 c-4 -4 -7 -18 -7 -31 0 -17 6 -23 21 -23 16 0 20 5 17 27
-3 26 -18 39 -31 27z"/>
<path d="M667 813 c-12 -11 -7 -43 6 -43 19 0 36 20 30 36 -5 15 -25 19 -36 7z"/>
</g>
</svg>
